{"asset":{"version":"2.0","generator":"Blockbench 5.1.4 glTF exporter"},"scenes":[{"nodes":[2,4,9,14],"name":"blockbench_export"}],"scene":0,"nodes":[{"translation":[0,0.75,0],"name":"tube","mesh":0},{"translation":[0,0.75,0],"name":"tube","mesh":1},{"translation":[0,0.75,0],"name":"Head","children":[0,1]},{"name":"tube","mesh":2},{"translation":[0,0.75,0],"name":"Chest","children":[3]},{"name":"tube","mesh":3},{"translation":[-0.25,0,0],"name":"LeftLeg","children":[5]},{"name":"tube","mesh":4},{"name":"RightLeg","children":[7]},{"translation":[0.109375,0.75,0],"name":"Legs","children":[6,8]},{"rotation":[0,0.25881904510252074,0,0.9659258262890683],"name":"tube","mesh":5},{"translation":[-0.40625,0.75,0],"name":"LeftArm","children":[10]},{"rotation":[0,-0.25881904510252074,0,0.9659258262890683],"name":"tube","mesh":6},{"translation":[0.1875,0.75,0],"name":"RightArm","children":[12]},{"translation":[0.109375,0.75,-0.03125],"name":"Arms","children":[11,13]}],"bufferViews":[{"buffer":0,"byteOffset":0,"byteLength":576,"target":34962,"byteStride":12},{"buffer":0,"byteOffset":576,"byteLength":576,"target":34962,"byteStride":12},{"buffer":0,"byteOffset":1152,"byteLength":384,"target":34962,"byteStride":8},{"buffer":0,"byteOffset":1536,"byteLength":144,"target":34963},{"buffer":0,"byteOffset":1680,"byteLength":576,"target":34962,"byteStride":12},{"buffer":0,"byteOffset":2256,"byteLength":576,"target":34962,"byteStride":12},{"buffer":0,"byteOffset":2832,"byteLength":384,"target":34962,"byteStride":8},{"buffer":0,"byteOffset":3216,"byteLength":144,"target":34963},{"buffer":0,"byteOffset":3360,"byteLength":576,"target":34962,"byteStride":12},{"buffer":0,"byteOffset":3936,"byteLength":576,"target":34962,"byteStride":12},{"buffer":0,"byteOffset":4512,"byteLength":384,"target":34962,"byteStride":8},{"buffer":0,"byteOffset":4896,"byteLength":144,"target":34963},{"buffer":0,"byteOffset":5040,"byteLength":576,"target":34962,"byteStride":12},{"buffer":0,"byteOffset":5616,"byteLength":576,"target":34962,"byteStride":12},{"buffer":0,"byteOffset":6192,"byteLength":384,"target":34962,"byteStride":8},{"buffer":0,"byteOffset":6576,"byteLength":144,"target":34963},{"buffer":0,"byteOffset":6720,"byteLength":576,"target":34962,"byteStride":12},{"buffer":0,"byteOffset":7296,"byteLength":576,"target":34962,"byteStride":12},{"buffer":0,"byteOffset":7872,"byteLength":384,"target":34962,"byteStride":8},{"buffer":0,"byteOffset":8256,"byteLength":144,"target":34963},{"buffer":0,"byteOffset":8400,"byteLength":576,"target":34962,"byteStride":12},{"buffer":0,"byteOffset":8976,"byteLength":576,"target":34962,"byteStride":12},{"buffer":0,"byteOffset":9552,"byteLength":384,"target":34962,"byteStride":8},{"buffer":0,"byteOffset":9936,"byteLength":144,"target":34963},{"buffer":0,"byteOffset":10080,"byteLength":576,"target":34962,"byteStride":12},{"buffer":0,"byteOffset":10656,"byteLength":576,"target":34962,"byteStride":12},{"buffer":0,"byteOffset":11232,"byteLength":384,"target":34962,"byteStride":8},{"buffer":0,"byteOffset":11616,"byteLength":144,"target":34963},{"buffer":0,"byteOffset":11760,"byteLength":16},{"buffer":0,"byteOffset":11776,"byteLength":64},{"buffer":0,"byteOffset":11840,"byteLength":60},{"buffer":0,"byteOffset":11900,"byteLength":240},{"buffer":0,"byteOffset":12140,"byteLength":16},{"buffer":0,"byteOffset":12156,"byteLength":64},{"buffer":0,"byteOffset":12220,"byteLength":16},{"buffer":0,"byteOffset":12236,"byteLength":64},{"buffer":0,"byteOffset":12300,"byteLength":28},{"buffer":0,"byteOffset":12328,"byteLength":112}],"buffers":[{"byteLength":12440,"uri":"data:application/octet-stream;base64,"}],"accessors":[{"bufferView":0,"componentType":5126,"count":48,"max":[0.2165062427520752,0.4375,0.25],"min":[-0.2165062427520752,0,-0.125],"type":"VEC3"},{"bufferView":1,"componentType":5126,"count":48,"max":[1,1,1],"min":[-0.8660255074501038,0,-0.4999998211860657],"type":"VEC3"},{"bufferView":2,"componentType":5126,"count":48,"max":[0.375,0.25],"min":[0,0],"type":"VEC2"},{"bufferView":3,"componentType":5123,"count":72,"max":[47],"min":[0],"type":"SCALAR"},{"bufferView":4,"componentType":5126,"count":48,"max":[0.2321312427520752,0.453125,0.265625],"min":[-0.2477562427520752,-0.015625,-0.140625],"type":"VEC3"},{"bufferView":5,"componentType":5126,"count":48,"max":[1,1,1],"min":[-0.8610314726829529,0,-0.5085516571998596],"type":"VEC3"},{"bufferView":6,"componentType":5126,"count":48,"max":[0.875,0.25],"min":[0,0],"type":"VEC2"},{"bufferView":7,"componentType":5123,"count":72,"max":[47],"min":[0],"type":"SCALAR"},{"bufferView":8,"componentType":5126,"count":48,"max":[0.2321312427520752,0.75,0.203125],"min":[-0.2321312427520752,0,-0.078125],"type":"VEC3"},{"bufferView":9,"componentType":5126,"count":48,"max":[1,1,1],"min":[-0.7712386250495911,0,-0.6365460753440857],"type":"VEC3"},{"bufferView":10,"componentType":5126,"count":48,"max":[0.6674078106880188,0.609375],"min":[0,0],"type":"VEC2"},{"bufferView":11,"componentType":5123,"count":72,"max":[47],"min":[0],"type":"SCALAR"},{"bufferView":12,"componentType":5126,"count":48,"max":[0.1238781213760376,0,0.140625],"min":[-0.1238781213760376,-0.75,-0.078125],"type":"VEC3"},{"bufferView":13,"componentType":5126,"count":48,"max":[1,1,1],"min":[-0.8701590299606323,0,-0.49277105927467346],"type":"VEC3"},{"bufferView":14,"componentType":5126,"count":48,"max":[0.5,1],"min":[0,0],"type":"VEC2"},{"bufferView":15,"componentType":5123,"count":72,"max":[47],"min":[0],"type":"SCALAR"},{"bufferView":16,"componentType":5126,"count":48,"max":[0.1238781213760376,0,0.140625],"min":[-0.1238781213760376,-0.75,-0.078125],"type":"VEC3"},{"bufferView":17,"componentType":5126,"count":48,"max":[1,1,1],"min":[-0.8701590299606323,0,-0.49277105927467346],"type":"VEC3"},{"bufferView":18,"componentType":5126,"count":48,"max":[0.25,0.5],"min":[0,0],"type":"VEC2"},{"bufferView":19,"componentType":5123,"count":72,"max":[47],"min":[0],"type":"SCALAR"},{"bufferView":20,"componentType":5126,"count":48,"max":[0.1238781213760376,0,0.140625],"min":[-0.1238781213760376,-0.75,-0.078125],"type":"VEC3"},{"bufferView":21,"componentType":5126,"count":48,"max":[1,1,1],"min":[-0.8701590299606323,0,-0.49277105927467346],"type":"VEC3"},{"bufferView":22,"componentType":5126,"count":48,"max":[0.875,0.8128480911254883],"min":[0,0],"type":"VEC2"},{"bufferView":23,"componentType":5123,"count":72,"max":[47],"min":[0],"type":"SCALAR"},{"bufferView":24,"componentType":5126,"count":48,"max":[0.1238781213760376,0,0.140625],"min":[-0.1238781213760376,-0.75,-0.078125],"type":"VEC3"},{"bufferView":25,"componentType":5126,"count":48,"max":[1,1,1],"min":[-0.8701590299606323,0,-0.49277105927467346],"type":"VEC3"},{"bufferView":26,"componentType":5126,"count":48,"max":[0.875,0.5],"min":[0,0],"type":"VEC2"},{"bufferView":27,"componentType":5123,"count":72,"max":[47],"min":[0],"type":"SCALAR"},{"bufferView":28,"componentType":5126,"count":4,"max":[0.8695651888847351],"min":[0],"type":"SCALAR"},{"bufferView":29,"componentType":5126,"count":4,"max":[0.2164396196603775,0,0,1],"min":[-0.2164396196603775,0,0,0.9762960076332092],"type":"VEC4"},{"bufferView":30,"componentType":5126,"count":15,"max":[0.8695651888847351],"min":[0],"type":"SCALAR"},{"bufferView":31,"componentType":5126,"count":15,"max":[0.2164396196603775,0,0,1],"min":[-0.2164396196603775,0,0,0.9762960076332092],"type":"VEC4"},{"bufferView":32,"componentType":5126,"count":4,"max":[0.8695651888847351],"min":[0],"type":"SCALAR"},{"bufferView":33,"componentType":5126,"count":4,"max":[0.2164396196603775,0,0,1],"min":[-0.2164396196603775,0,0,0.9762960076332092],"type":"VEC4"},{"bufferView":34,"componentType":5126,"count":4,"max":[0.8695651888847351],"min":[0],"type":"SCALAR"},{"bufferView":35,"componentType":5126,"count":4,"max":[0.2164396196603775,0,0,1],"min":[-0.2164396196603775,0,0,0.9762960076332092],"type":"VEC4"},{"bufferView":36,"componentType":5126,"count":7,"max":[0.390625],"min":[0],"type":"SCALAR"},{"bufferView":37,"componentType":5126,"count":7,"max":[0.5735764503479004,0.049523841589689255,0.32846978306770325,1],"min":[0,-0.19240844249725342,-0.1549118459224701,0.8191520571708679],"type":"VEC4"}],"materials":[{"pbrMetallicRoughness":{"metallicFactor":0,"roughnessFactor":1,"baseColorTexture":{"index":0}},"alphaMode":"MASK","alphaCutoff":0.05,"doubleSided":true}],"textures":[{"sampler":0,"source":0,"name":"SteveTexture.png"}],"samplers":[{"magFilter":9728,"minFilter":9728,"wrapS":33071,"wrapT":33071}],"images":[{"mimeType":"image/png","name":"SteveTexture.png","uri":"SteveTexture.png"}],"meshes":[{"primitives":[{"mode":4,"attributes":{"POSITION":0,"NORMAL":1,"TEXCOORD_0":2},"indices":3,"material":0}]},{"primitives":[{"mode":4,"attributes":{"POSITION":4,"NORMAL":5,"TEXCOORD_0":6},"indices":7,"material":0}]},{"primitives":[{"mode":4,"attributes":{"POSITION":8,"NORMAL":9,"TEXCOORD_0":10},"indices":11,"material":0}]},{"primitives":[{"mode":4,"attributes":{"POSITION":12,"NORMAL":13,"TEXCOORD_0":14},"indices":15,"material":0}]},{"primitives":[{"mode":4,"attributes":{"POSITION":16,"NORMAL":17,"TEXCOORD_0":18},"indices":19,"material":0}]},{"primitives":[{"mode":4,"attributes":{"POSITION":20,"NORMAL":21,"TEXCOORD_0":22},"indices":23,"material":0}]},{"primitives":[{"mode":4,"attributes":{"POSITION":24,"NORMAL":25,"TEXCOORD_0":26},"indices":27,"material":0}]}],"animations":[{"name":"walk","samplers":[{"input":28,"output":29,"interpolation":"LINEAR"},{"input":30,"output":31,"interpolation":"LINEAR"},{"input":32,"output":33,"interpolation":"LINEAR"},{"input":34,"output":35,"interpolation":"LINEAR"}],"channels":[{"sampler":0,"target":{"node":6,"path":"rotation"}},{"sampler":1,"target":{"node":8,"path":"rotation"}},{"sampler":2,"target":{"node":11,"path":"rotation"}},{"sampler":3,"target":{"node":13,"path":"rotation"}}]},{"name":"swing","samplers":[{"input":36,"output":37,"interpolation":"LINEAR"}],"channels":[{"sampler":0,"target":{"node":13,"path":"rotation"}}]}]}